<mxfile host="" modified="2020-06-13T23:48:37.233Z" agent="5.0 (Macintosh; Intel Mac OS X 10_15_5) AppleWebKit/537.36 (KHTML, like Gecko) Code/1.45.0 Chrome/78.0.3904.130 Electron/7.2.4 Safari/537.36" etag="vwlldJYchhSF6bM5m1K-" version="13.1.3">
    <diagram id="E9-yHKRCz_EbnTnO_l_d" name="Page-1">
        <mxGraphModel dx="675" dy="526" grid="1" gridSize="10" guides="1" tooltips="1" connect="1" arrows="1" fold="1" page="1" pageScale="1" pageWidth="827" pageHeight="1169" math="0" shadow="0">
            <root>
                <mxCell id="0"/>
                <mxCell id="1" parent="0"/>
                <mxCell id="jSRBYqNbPdU7Eikz307N-3" value="名言" style="html=1;" parent="1" vertex="1">
                    <mxGeometry x="225" y="270" width="110" height="50" as="geometry"/>
                </mxCell>
                <mxCell id="jSRBYqNbPdU7Eikz307N-4" value="" style="endArrow=diamondThin;endFill=0;endSize=24;html=1;entryX=0.5;entryY=1;entryDx=0;entryDy=0;exitX=0.5;exitY=0;exitDx=0;exitDy=0;" parent="1" source="jSRBYqNbPdU7Eikz307N-3" target="jSRBYqNbPdU7Eikz307N-6" edge="1">
                    <mxGeometry width="160" relative="1" as="geometry">
                        <mxPoint x="330" y="290" as="sourcePoint"/>
                        <mxPoint x="280" y="180" as="targetPoint"/>
                    </mxGeometry>
                </mxCell>
                <mxCell id="jSRBYqNbPdU7Eikz307N-5" value="Twitterアカウント" style="html=1;" parent="1" vertex="1">
                    <mxGeometry x="450" y="120" width="110" height="50" as="geometry"/>
                </mxCell>
                <mxCell id="jSRBYqNbPdU7Eikz307N-6" value="書籍" style="html=1;" parent="1" vertex="1">
                    <mxGeometry x="225" y="120" width="110" height="50" as="geometry"/>
                </mxCell>
                <mxCell id="jSRBYqNbPdU7Eikz307N-7" value="GCPアカウント" style="html=1;" parent="1" vertex="1">
                    <mxGeometry x="450" y="270" width="110" height="50" as="geometry"/>
                </mxCell>
                <mxCell id="2" value="ユーザ情報" style="swimlane;fontStyle=0;childLayout=stackLayout;horizontal=1;startSize=26;fillColor=none;horizontalStack=0;resizeParent=1;resizeParentMax=0;resizeLast=0;collapsible=1;marginBottom=0;" vertex="1" parent="1">
                    <mxGeometry x="640" y="120" width="140" height="78" as="geometry"/>
                </mxCell>
                <mxCell id="3" value="+ アカウント名: type" style="text;strokeColor=none;fillColor=none;align=left;verticalAlign=top;spacingLeft=4;spacingRight=4;overflow=hidden;rotatable=0;points=[[0,0.5],[1,0.5]];portConstraint=eastwest;" vertex="1" parent="2">
                    <mxGeometry y="26" width="140" height="26" as="geometry"/>
                </mxCell>
                <mxCell id="4" value="+ パスワード: type" style="text;strokeColor=none;fillColor=none;align=left;verticalAlign=top;spacingLeft=4;spacingRight=4;overflow=hidden;rotatable=0;points=[[0,0.5],[1,0.5]];portConstraint=eastwest;" vertex="1" parent="2">
                    <mxGeometry y="52" width="140" height="26" as="geometry"/>
                </mxCell>
            </root>
        </mxGraphModel>
    </diagram>
</mxfile>